<svg width="48" height="48" viewBox="0 0 48 48" fill="none" xmlns="http://www.w3.org/2000/svg">
  <defs>
    <linearGradient id="l1" x1="0" y1="0" x2="48" y2="48" gradientUnits="userSpaceOnUse">
      <stop offset="0%" stop-color="#C4B5FD"/>
      <stop offset="50%" stop-color="#A78BFA"/>
      <stop offset="100%" stop-color="#8B5CF6"/>
    </linearGradient>
    <linearGradient id="l2" x1="0" y1="0" x2="48" y2="48" gradientUnits="userSpaceOnUse">
      <stop offset="0%" stop-color="#A78BFA"/>
      <stop offset="100%" stop-color="#7C3AED"/>
    </linearGradient>
    <linearGradient id="l3" x1="0" y1="0" x2="48" y2="48" gradientUnits="userSpaceOnUse">
      <stop offset="0%" stop-color="#8B5CF6"/>
      <stop offset="100%" stop-color="#6D28D9"/>
    </linearGradient>
    <radialGradient id="sp" cx="0.5" cy="0.5" r="0.5" gradientUnits="objectBoundingBox">
      <stop offset="0%" stop-color="#FDF4FF"/>
      <stop offset="40%" stop-color="#F0ABFC"/>
      <stop offset="100%" stop-color="#EC4899"/>
    </radialGradient>
    <radialGradient id="spg" cx="0.5" cy="0.5" r="0.5" gradientUnits="objectBoundingBox">
      <stop offset="0%" stop-color="#F0ABFC" stop-opacity="0.6"/>
      <stop offset="100%" stop-color="#EC4899" stop-opacity="0"/>
    </radialGradient>
  </defs>

  <!-- Back layer (deepest) -->
  <g transform="translate(0, 4)">
    <path d="M8 28 L26 22 L40 26 L22 32 Z" fill="url(#l3)" opacity="0.55"/>
  </g>

  <!-- Middle layer -->
  <g transform="translate(0, -2)">
    <path d="M8 28 L26 22 L40 26 L22 32 Z" fill="url(#l2)" opacity="0.8"/>
  </g>

  <!-- Front layer (top) -->
  <g transform="translate(0, -8)">
    <path d="M8 28 L26 22 L40 26 L22 32 Z" fill="url(#l1)"/>
    <path d="M8 28 L26 22 L40 26" stroke="#DDD6FE" stroke-width="0.6" stroke-opacity="0.7" fill="none"/>
  </g>

  <!-- Spark glow halo -->
  <circle cx="40" cy="10" r="9" fill="url(#spg)"/>

  <!-- AI Spark -->
  <g transform="translate(40, 10) rotate(15)">
    <path d="M0 -7 L1.5 -1.5 L7 0 L1.5 1.5 L0 7 L-1.5 1.5 L-7 0 L-1.5 -1.5 Z" fill="url(#sp)"/>
    <circle cx="0" cy="0" r="1.5" fill="#FDF4FF" opacity="0.9"/>
  </g>
</svg>